<svg width="64" height="64" viewBox="0 0 64 64" fill="none" xmlns="http://www.w3.org/2000/svg">
<path d="M24 34L30 40L40 26M56 32C56 35.1517 55.3792 38.2726 54.1731 41.1844C52.967 44.0962 51.1992 46.742 48.9706 48.9706C46.742 51.1992 44.0962 52.967 41.1844 54.1731C38.2726 55.3792 35.1517 56 32 56C28.8483 56 25.7274 55.3792 22.8156 54.1731C19.9038 52.967 17.258 51.1992 15.0294 48.9706C12.8008 46.742 11.033 44.0962 9.82689 41.1844C8.62078 38.2726 8 35.1517 8 32C8 25.6348 10.5286 19.5303 15.0294 15.0294C19.5303 10.5286 25.6348 8 32 8C38.3652 8 44.4697 10.5286 48.9706 15.0294C53.4714 19.5303 56 25.6348 56 32Z" stroke="black" stroke-width="2" stroke-linecap="round" stroke-linejoin="round"/>
</svg>
