<svg width="48" height="48" viewBox="0 0 48 48" fill="none" xmlns="http://www.w3.org/2000/svg">
<rect width="48" height="48" rx="24" fill="black"/>
<mask id="mask0_769_47053" style="mask-type:alpha" maskUnits="userSpaceOnUse" x="8" y="8" width="32" height="32">
<rect x="8" y="8" width="32" height="32" fill="#D9D9D9"/>
</mask>
<g mask="url(#mask0_769_47053)">
<path d="M20.6445 32.6885C20.526 32.57 20.4593 32.4218 20.4445 32.2441C20.4297 32.0663 20.4741 31.9107 20.5778 31.7774L24.8889 25.7774L17.6889 25.0885C17.3038 25.0589 17.0481 24.8589 16.9218 24.4885C16.7962 24.1181 16.8815 23.807 17.1778 23.5552L26.4001 15.2885C26.5334 15.1552 26.6928 15.0921 26.8783 15.0992C27.0632 15.1069 27.2223 15.1774 27.3556 15.3107C27.4741 15.4292 27.5408 15.5774 27.5556 15.7552C27.5704 15.933 27.526 16.0885 27.4223 16.2218L23.1112 22.2218L30.3112 22.9107C30.6964 22.9404 30.9518 23.1404 31.0774 23.5107C31.2036 23.8811 31.1186 24.1922 30.8223 24.4441L21.6001 32.7107C21.4667 32.8441 21.3076 32.9069 21.1227 32.8992C20.9372 32.8921 20.7778 32.8218 20.6445 32.6885Z" fill="white"/>
</g>
</svg>
