<svg width="12" height="14" viewBox="0 0 12 14" fill="none" xmlns="http://www.w3.org/2000/svg">
<path d="M3.4835 13.5166C3.39461 13.4277 3.34461 13.3166 3.3335 13.1833C3.32239 13.05 3.35572 12.9333 3.4335 12.8333L6.66683 8.33329L1.26683 7.81662C0.977941 7.7944 0.786163 7.6444 0.691497 7.36662C0.597274 7.08885 0.661274 6.85551 0.883496 6.66662L7.80016 0.466624C7.90016 0.366624 8.01972 0.31929 8.15883 0.324624C8.2975 0.330402 8.41683 0.38329 8.51683 0.48329C8.60572 0.572179 8.65572 0.68329 8.66683 0.816624C8.67794 0.949957 8.64461 1.06662 8.56683 1.16662L5.3335 5.66662L10.7335 6.18329C11.0224 6.20551 11.2139 6.35551 11.3082 6.63329C11.4028 6.91107 11.3391 7.1444 11.1168 7.33329L4.20016 13.5333C4.10016 13.6333 3.98083 13.6804 3.84216 13.6746C3.70305 13.6693 3.5835 13.6166 3.4835 13.5166Z" fill="white"/>
</svg>
