<svg width="802" height="235" viewBox="0 0 802 235" fill="none" xmlns="http://www.w3.org/2000/svg">
<path d="M718.682 148.814L672.409 48.1094H634.003L700.106 183.988L698.917 188.079C697.261 193.518 693.766 198.215 689.029 201.369C684.291 204.522 678.604 205.936 672.938 205.369C666.306 205.308 659.799 203.559 654.032 200.288L647.885 229.391C656.757 233.041 666.251 234.945 675.847 235C702.288 235 718.285 225.299 731.506 196.724L801.509 48.1094H764.425L718.682 148.814Z" fill="white"/>
<path d="M391.653 0.132935H280.732V185.242H317.089V117.203H391.653C432.175 117.203 458.814 96.8118 458.814 58.6682C458.814 20.5246 432.175 0.132935 391.653 0.132935ZM389.67 84.8012H316.957V32.0073H389.67C410.691 32.0073 422.722 41.5762 422.722 58.4042C422.722 75.2323 410.691 84.8012 389.67 84.8012Z" fill="white"/>
<path d="M610.816 150.134V94.3702C610.816 61.374 587.085 44.282 546.365 44.282C513.313 44.282 484.36 59.6582 476.229 83.2835L506.108 93.8423C510.537 82.0296 525.939 73.3186 545.109 73.3186C567.849 73.3186 577.434 82.5576 577.434 93.8423V97.4718L523.361 103.411C492.226 106.711 471.734 120.635 471.734 145.514C471.734 172.769 495.201 187.419 526.336 187.419C546.404 188.044 565.947 180.958 580.937 167.622C586.357 180.82 591.91 189.663 628.862 184.978V157.393C614.055 160.957 610.816 157.393 610.816 150.134ZM577.764 132.448C577.764 150.398 552.579 159.901 531.492 159.901C515.429 159.901 505.777 154.753 505.777 144.524C505.777 134.296 513.71 130.6 529.046 128.818L577.896 123.143L577.764 132.448Z" fill="white"/>
<path d="M211.97 141.819C212.227 142.59 212.227 143.423 211.97 144.194C211.821 144.963 211.454 145.673 210.912 146.24L175.944 182.866C175.173 183.657 174.251 184.285 173.233 184.714C172.213 185.16 171.109 185.385 169.994 185.374H4.1409C3.37281 185.38 2.61784 185.175 1.95949 184.78C1.30157 184.333 0.776372 183.717 0.439112 182.998C0.206189 182.268 0.206189 181.484 0.439112 180.754C0.576189 179.995 0.91912 179.287 1.43066 178.708L36.4655 142.083C37.236 141.292 38.1576 140.664 39.1757 140.235C40.1945 139.782 41.2998 139.557 42.4148 139.575H208.004C208.803 139.56 209.587 139.79 210.251 140.235C210.995 140.541 211.605 141.103 211.97 141.819ZM176.01 72.2627C175.222 71.4926 174.305 70.8671 173.299 70.4149C172.269 69.9998 171.171 69.7762 170.06 69.755H4.1409C3.3632 69.7664 2.60425 69.9949 1.95001 70.4148C1.29576 70.8347 0.772361 71.4291 0.439112 72.1307C0.210472 72.8612 0.210472 73.6439 0.439112 74.3744C0.550439 75.1421 0.896764 75.8566 1.43066 76.4202L36.4655 113.112C37.2532 113.882 38.1706 114.507 39.1757 114.96C40.2043 115.381 41.3032 115.605 42.4148 115.62H208.004C208.803 115.635 209.587 115.404 210.251 114.96C210.919 114.571 211.432 113.965 211.705 113.244C212.044 112.542 212.156 111.752 212.026 110.984C211.896 110.215 211.53 109.506 210.978 108.954L176.01 72.2627ZM1.95949 45.2058C2.61784 45.6008 3.37281 45.8064 4.1409 45.7997H170.06C171.175 45.8113 172.279 45.5863 173.299 45.1398C174.318 44.711 175.239 44.0826 176.01 43.292L210.978 6.66621C211.52 6.0994 211.887 5.38937 212.036 4.62045C212.265 3.88995 212.265 3.1072 212.036 2.3767C211.763 1.6553 211.249 1.04957 210.582 0.6609C209.918 0.216187 209.133 -0.0141856 208.334 0.000973637H42.1503C41.0354 -0.0167792 39.9301 0.208431 38.9113 0.6609C37.8932 1.08972 36.9716 1.71805 36.201 2.50869L1.23236 39.2665C0.677869 39.8239 0.308598 40.5381 0.174692 41.3122C-0.0582308 42.0421 -0.0582308 42.8261 0.174692 43.556C0.603731 44.2614 1.22198 44.8329 1.95949 45.2058V45.2058Z" fill="url(#paint0_linear_412_43047)"/>
<defs>
<linearGradient id="paint0_linear_412_43047" x1="17.9128" y1="189.792" x2="187.483" y2="-5.91832" gradientUnits="userSpaceOnUse">
<stop offset="0.08" stop-color="#9945FF"/>
<stop offset="0.3" stop-color="#8752F3"/>
<stop offset="0.5" stop-color="#5497D5"/>
<stop offset="0.6" stop-color="#43B4CA"/>
<stop offset="0.72" stop-color="#28E0B9"/>
<stop offset="0.97" stop-color="#19FB9B"/>
</linearGradient>
</defs>
</svg>
